<svg width="42" height="42" viewBox="0 0 42 42" fill="none" xmlns="http://www.w3.org/2000/svg">
<rect width="42" height="42" rx="5" fill="#F47500"/>
<rect x="4.5" y="5.5" width="33" height="32" rx="16" fill="white" stroke="#F47500"/>
<g clip-path="url(#clip0_171_29)">
<path fill-rule="evenodd" clip-rule="evenodd" d="M20.9994 4.42371C11.6124 4.42371 4 12.0349 4 21.423C4 28.9345 8.87039 35.3045 15.6251 37.5534C16.4753 37.7108 16.7878 37.1838 16.7878 36.7345C16.7878 36.3291 16.7709 34.9901 16.764 33.5708C12.0341 34.5992 11.0371 31.5642 11.0371 31.5642C10.264 29.5989 9.14962 29.0763 9.14962 29.0763C7.60729 28.0202 9.26697 28.0434 9.26697 28.0434C10.9737 28.1627 11.8722 29.7941 11.8722 29.7941C13.3895 32.3931 15.8504 31.6407 16.8198 31.2071C16.9729 30.1084 17.4122 29.358 17.899 28.9332C14.1229 28.5046 10.1536 27.0464 10.1536 20.532C10.1536 18.6766 10.8187 17.1594 11.9048 15.9696C11.7279 15.5405 11.1456 13.8124 12.0686 11.4713C12.0686 11.4713 13.4961 11.0139 16.7452 13.2138C18.1005 12.838 19.5543 12.6485 20.9981 12.6422C22.4431 12.6485 23.8995 12.8373 25.2567 13.2138C28.5014 11.0152 29.9276 11.4713 29.9276 11.4713C30.8519 13.8131 30.2721 15.5423 30.0952 15.9697C31.1851 17.1594 31.8446 18.6766 31.8446 20.532C31.8446 27.0614 27.8664 28.497 24.0821 28.9181C24.692 29.4452 25.2367 30.4799 25.2367 32.0649C25.2367 34.3382 25.2172 36.1704 25.2172 36.7294C25.2172 37.1819 25.5234 37.7108 26.3855 37.5451C33.1365 35.2951 38.0006 28.9243 38.0006 21.4173C38.0006 12.0304 30.3895 4.41797 21.0006 4.41797L20.9994 4.42365L20.9994 4.42371Z" fill="#F47500"/>
</g>
<defs>
<clipPath id="clip0_171_29">
<rect width="34" height="34" fill="white" transform="translate(4 4)"/>
</clipPath>
</defs>
</svg>
